<mxfile host="app.diagrams.net" agent="Mozilla/5.0 (Windows NT 10.0; Win64; x64) AppleWebKit/537.36 (KHTML, like Gecko) Chrome/128.0.0.0 Safari/537.36" version="24.7.14">
  <diagram name="Page-1" id="U8rrbiM0W2LGoaVB6M3a">
    <mxGraphModel dx="2575" dy="1200" grid="1" gridSize="10" guides="1" tooltips="1" connect="1" arrows="1" fold="1" page="1" pageScale="1" pageWidth="850" pageHeight="1100" math="0" shadow="0">
      <root>
        <mxCell id="0" />
        <mxCell id="1" parent="0" />
        <mxCell id="DOCjjLOeVFkWmdDu9p-t-5" style="edgeStyle=orthogonalEdgeStyle;rounded=0;orthogonalLoop=1;jettySize=auto;html=1;exitX=0.5;exitY=1;exitDx=0;exitDy=0;exitPerimeter=0;entryX=0.5;entryY=0;entryDx=0;entryDy=0;" edge="1" parent="1" source="DOCjjLOeVFkWmdDu9p-t-3" target="DOCjjLOeVFkWmdDu9p-t-4">
          <mxGeometry relative="1" as="geometry" />
        </mxCell>
        <mxCell id="DOCjjLOeVFkWmdDu9p-t-3" value="Start" style="strokeWidth=2;html=1;shape=mxgraph.flowchart.terminator;whiteSpace=wrap;" vertex="1" parent="1">
          <mxGeometry x="190" y="50" width="100" height="60" as="geometry" />
        </mxCell>
        <mxCell id="DOCjjLOeVFkWmdDu9p-t-7" style="edgeStyle=orthogonalEdgeStyle;rounded=0;orthogonalLoop=1;jettySize=auto;html=1;exitX=0.5;exitY=1;exitDx=0;exitDy=0;" edge="1" parent="1" source="DOCjjLOeVFkWmdDu9p-t-4" target="DOCjjLOeVFkWmdDu9p-t-6">
          <mxGeometry relative="1" as="geometry" />
        </mxCell>
        <mxCell id="DOCjjLOeVFkWmdDu9p-t-4" value="Input age" style="shape=parallelogram;html=1;strokeWidth=2;perimeter=parallelogramPerimeter;whiteSpace=wrap;rounded=1;arcSize=12;size=0.23;" vertex="1" parent="1">
          <mxGeometry x="160" y="150" width="160" height="60" as="geometry" />
        </mxCell>
        <mxCell id="DOCjjLOeVFkWmdDu9p-t-12" value="" style="edgeStyle=orthogonalEdgeStyle;rounded=0;orthogonalLoop=1;jettySize=auto;html=1;" edge="1" parent="1" source="DOCjjLOeVFkWmdDu9p-t-6" target="DOCjjLOeVFkWmdDu9p-t-9">
          <mxGeometry relative="1" as="geometry" />
        </mxCell>
        <mxCell id="DOCjjLOeVFkWmdDu9p-t-17" value="yes" style="edgeLabel;html=1;align=center;verticalAlign=middle;resizable=0;points=[];" vertex="1" connectable="0" parent="DOCjjLOeVFkWmdDu9p-t-12">
          <mxGeometry x="-0.56" y="-3" relative="1" as="geometry">
            <mxPoint as="offset" />
          </mxGeometry>
        </mxCell>
        <mxCell id="DOCjjLOeVFkWmdDu9p-t-19" value="" style="edgeStyle=orthogonalEdgeStyle;rounded=0;orthogonalLoop=1;jettySize=auto;html=1;" edge="1" parent="1" source="DOCjjLOeVFkWmdDu9p-t-6" target="DOCjjLOeVFkWmdDu9p-t-18">
          <mxGeometry relative="1" as="geometry" />
        </mxCell>
        <mxCell id="DOCjjLOeVFkWmdDu9p-t-20" value="no" style="edgeLabel;html=1;align=center;verticalAlign=middle;resizable=0;points=[];" vertex="1" connectable="0" parent="DOCjjLOeVFkWmdDu9p-t-19">
          <mxGeometry x="0.1" y="3" relative="1" as="geometry">
            <mxPoint as="offset" />
          </mxGeometry>
        </mxCell>
        <mxCell id="DOCjjLOeVFkWmdDu9p-t-6" value="if age &amp;lt; 18" style="strokeWidth=2;html=1;shape=mxgraph.flowchart.decision;whiteSpace=wrap;" vertex="1" parent="1">
          <mxGeometry x="180" y="260" width="120" height="120" as="geometry" />
        </mxCell>
        <mxCell id="DOCjjLOeVFkWmdDu9p-t-22" value="" style="edgeStyle=orthogonalEdgeStyle;rounded=0;orthogonalLoop=1;jettySize=auto;html=1;" edge="1" parent="1" source="DOCjjLOeVFkWmdDu9p-t-8" target="DOCjjLOeVFkWmdDu9p-t-21">
          <mxGeometry relative="1" as="geometry" />
        </mxCell>
        <mxCell id="DOCjjLOeVFkWmdDu9p-t-8" value="output :&lt;div&gt;remaja&lt;/div&gt;" style="shape=parallelogram;html=1;strokeWidth=2;perimeter=parallelogramPerimeter;whiteSpace=wrap;rounded=1;arcSize=12;size=0.23;" vertex="1" parent="1">
          <mxGeometry x="155" y="600" width="170" height="70" as="geometry" />
        </mxCell>
        <mxCell id="DOCjjLOeVFkWmdDu9p-t-10" style="edgeStyle=orthogonalEdgeStyle;rounded=0;orthogonalLoop=1;jettySize=auto;html=1;entryX=0;entryY=0.5;entryDx=0;entryDy=0;exitX=0;exitY=0.5;exitDx=0;exitDy=0;exitPerimeter=0;" edge="1" parent="1" source="DOCjjLOeVFkWmdDu9p-t-9" target="DOCjjLOeVFkWmdDu9p-t-4">
          <mxGeometry relative="1" as="geometry">
            <Array as="points">
              <mxPoint x="30" y="490" />
              <mxPoint x="30" y="180" />
            </Array>
          </mxGeometry>
        </mxCell>
        <mxCell id="DOCjjLOeVFkWmdDu9p-t-14" value="no" style="edgeLabel;html=1;align=center;verticalAlign=middle;resizable=0;points=[];" vertex="1" connectable="0" parent="DOCjjLOeVFkWmdDu9p-t-10">
          <mxGeometry x="-0.0927" y="3" relative="1" as="geometry">
            <mxPoint as="offset" />
          </mxGeometry>
        </mxCell>
        <mxCell id="DOCjjLOeVFkWmdDu9p-t-15" value="" style="edgeStyle=orthogonalEdgeStyle;rounded=0;orthogonalLoop=1;jettySize=auto;html=1;" edge="1" parent="1" source="DOCjjLOeVFkWmdDu9p-t-9" target="DOCjjLOeVFkWmdDu9p-t-8">
          <mxGeometry relative="1" as="geometry" />
        </mxCell>
        <mxCell id="DOCjjLOeVFkWmdDu9p-t-16" value="yes" style="edgeLabel;html=1;align=center;verticalAlign=middle;resizable=0;points=[];" vertex="1" connectable="0" parent="DOCjjLOeVFkWmdDu9p-t-15">
          <mxGeometry x="-0.68" y="-1" relative="1" as="geometry">
            <mxPoint as="offset" />
          </mxGeometry>
        </mxCell>
        <mxCell id="DOCjjLOeVFkWmdDu9p-t-9" value="if age &amp;gt; 0" style="strokeWidth=2;html=1;shape=mxgraph.flowchart.decision;whiteSpace=wrap;" vertex="1" parent="1">
          <mxGeometry x="180" y="430" width="120" height="120" as="geometry" />
        </mxCell>
        <mxCell id="DOCjjLOeVFkWmdDu9p-t-27" style="edgeStyle=orthogonalEdgeStyle;rounded=0;orthogonalLoop=1;jettySize=auto;html=1;" edge="1" parent="1" source="DOCjjLOeVFkWmdDu9p-t-18" target="DOCjjLOeVFkWmdDu9p-t-25">
          <mxGeometry relative="1" as="geometry" />
        </mxCell>
        <mxCell id="DOCjjLOeVFkWmdDu9p-t-29" value="Yes" style="edgeLabel;html=1;align=center;verticalAlign=middle;resizable=0;points=[];" vertex="1" connectable="0" parent="DOCjjLOeVFkWmdDu9p-t-27">
          <mxGeometry x="-0.1932" y="4" relative="1" as="geometry">
            <mxPoint as="offset" />
          </mxGeometry>
        </mxCell>
        <mxCell id="DOCjjLOeVFkWmdDu9p-t-28" style="edgeStyle=orthogonalEdgeStyle;rounded=0;orthogonalLoop=1;jettySize=auto;html=1;" edge="1" parent="1" source="DOCjjLOeVFkWmdDu9p-t-18" target="DOCjjLOeVFkWmdDu9p-t-26">
          <mxGeometry relative="1" as="geometry" />
        </mxCell>
        <mxCell id="DOCjjLOeVFkWmdDu9p-t-30" value="No" style="edgeLabel;html=1;align=center;verticalAlign=middle;resizable=0;points=[];" vertex="1" connectable="0" parent="DOCjjLOeVFkWmdDu9p-t-28">
          <mxGeometry x="0.006" y="1" relative="1" as="geometry">
            <mxPoint as="offset" />
          </mxGeometry>
        </mxCell>
        <mxCell id="DOCjjLOeVFkWmdDu9p-t-18" value="if age &amp;gt; 18 &amp;amp;&amp;amp; age &amp;lt; 60" style="strokeWidth=2;html=1;shape=mxgraph.flowchart.decision;whiteSpace=wrap;" vertex="1" parent="1">
          <mxGeometry x="365" y="260" width="160" height="120" as="geometry" />
        </mxCell>
        <mxCell id="DOCjjLOeVFkWmdDu9p-t-21" value="End" style="strokeWidth=2;html=1;shape=mxgraph.flowchart.terminator;whiteSpace=wrap;" vertex="1" parent="1">
          <mxGeometry x="320" y="770" width="100" height="60" as="geometry" />
        </mxCell>
        <mxCell id="DOCjjLOeVFkWmdDu9p-t-31" style="edgeStyle=orthogonalEdgeStyle;rounded=0;orthogonalLoop=1;jettySize=auto;html=1;" edge="1" parent="1" source="DOCjjLOeVFkWmdDu9p-t-25" target="DOCjjLOeVFkWmdDu9p-t-21">
          <mxGeometry relative="1" as="geometry" />
        </mxCell>
        <mxCell id="DOCjjLOeVFkWmdDu9p-t-25" value="output :&lt;div&gt;dewasa&lt;/div&gt;" style="shape=parallelogram;html=1;strokeWidth=2;perimeter=parallelogramPerimeter;whiteSpace=wrap;rounded=1;arcSize=12;size=0.23;" vertex="1" parent="1">
          <mxGeometry x="360" y="600" width="170" height="70" as="geometry" />
        </mxCell>
        <mxCell id="DOCjjLOeVFkWmdDu9p-t-26" value="output :&lt;div&gt;Lansia&lt;/div&gt;" style="shape=parallelogram;html=1;strokeWidth=2;perimeter=parallelogramPerimeter;whiteSpace=wrap;rounded=1;arcSize=12;size=0.23;" vertex="1" parent="1">
          <mxGeometry x="580" y="600" width="170" height="70" as="geometry" />
        </mxCell>
        <mxCell id="DOCjjLOeVFkWmdDu9p-t-32" style="edgeStyle=orthogonalEdgeStyle;rounded=0;orthogonalLoop=1;jettySize=auto;html=1;entryX=0.5;entryY=0;entryDx=0;entryDy=0;entryPerimeter=0;" edge="1" parent="1" source="DOCjjLOeVFkWmdDu9p-t-26" target="DOCjjLOeVFkWmdDu9p-t-21">
          <mxGeometry relative="1" as="geometry">
            <Array as="points">
              <mxPoint x="665" y="720" />
              <mxPoint x="370" y="720" />
            </Array>
          </mxGeometry>
        </mxCell>
      </root>
    </mxGraphModel>
  </diagram>
</mxfile>
